<?xml version="1.0" encoding="utf-8"?>
<!-- Generator: Adobe Illustrator 19.2.0, SVG Export Plug-In . SVG Version: 6.00 Build 0)  -->
<svg version="1.1" id="Capa_1" xmlns="http://www.w3.org/2000/svg" xmlns:xlink="http://www.w3.org/1999/xlink" x="0px" y="0px"
	 viewBox="0 0 2267.7 2267.7" style="enable-background:new 0 0 2267.7 2267.7;" xml:space="preserve">
<style type="text/css">
	.st0{fill:#69929C;}
	.st1{fill-rule:evenodd;clip-rule:evenodd;fill:#BF253F;}
	.st2{fill-rule:evenodd;clip-rule:evenodd;fill:#E4D258;}
	.st3{fill-rule:evenodd;clip-rule:evenodd;fill:#DEA13C;}
	.st4{fill-rule:evenodd;clip-rule:evenodd;fill:#CE6720;}
	.st5{fill-rule:evenodd;clip-rule:evenodd;fill:#4D7081;}
	.st6{fill-rule:evenodd;clip-rule:evenodd;fill:#687D5F;}
	.st7{fill-rule:evenodd;clip-rule:evenodd;fill:#537E5A;}
	.st8{fill-rule:evenodd;clip-rule:evenodd;fill:#6B7736;}
	.st9{fill-rule:evenodd;clip-rule:evenodd;fill:#5F4B38;}
	.st10{fill-rule:evenodd;clip-rule:evenodd;fill:#73652F;}
	.st11{fill-rule:evenodd;clip-rule:evenodd;fill:#345F60;}
	.st12{fill-rule:evenodd;clip-rule:evenodd;fill:#ACAE40;}
	.st13{fill-rule:evenodd;clip-rule:evenodd;fill:#CC9133;}
	.st14{fill-rule:evenodd;clip-rule:evenodd;fill:#D38E36;}
	.st15{fill-rule:evenodd;clip-rule:evenodd;fill:#AB9438;}
	.st16{fill-rule:evenodd;clip-rule:evenodd;fill:#C2422B;}
	.st17{fill-rule:evenodd;clip-rule:evenodd;fill:#A68137;}
	.st18{fill-rule:evenodd;clip-rule:evenodd;fill:#5B4057;}
	.st19{fill-rule:evenodd;clip-rule:evenodd;fill:#37664F;}
	.st20{fill-rule:evenodd;clip-rule:evenodd;fill:#A88729;}
	.st21{fill-rule:evenodd;clip-rule:evenodd;fill:#957E2F;}
	.st22{fill-rule:evenodd;clip-rule:evenodd;fill:#666C55;}
	.st23{fill-rule:evenodd;clip-rule:evenodd;fill:#6D8940;}
	.st24{fill-rule:evenodd;clip-rule:evenodd;fill:#4A704A;}
	.st25{fill-rule:evenodd;clip-rule:evenodd;fill:#8F242C;}
	.st26{fill-rule:evenodd;clip-rule:evenodd;fill:#B96320;}
	.st27{fill-rule:evenodd;clip-rule:evenodd;fill:#AAA94D;}
	.st28{fill-rule:evenodd;clip-rule:evenodd;fill:#DEBA35;}
	.st29{fill-rule:evenodd;clip-rule:evenodd;fill:#C44321;}
	.st30{fill-rule:evenodd;clip-rule:evenodd;fill:#8D1F3A;}
	.st31{fill-rule:evenodd;clip-rule:evenodd;fill:#AC3327;}
	.st32{fill-rule:evenodd;clip-rule:evenodd;fill:#D68D24;stroke:#D68D24;stroke-width:0.216;stroke-miterlimit:22.9256;}
	.st33{fill-rule:evenodd;clip-rule:evenodd;fill:#AC8D28;}
	.st34{fill-rule:evenodd;clip-rule:evenodd;fill:#445546;}
	.st35{fill-rule:evenodd;clip-rule:evenodd;fill:#AA8935;}
	.st36{fill-rule:evenodd;clip-rule:evenodd;fill:#947B35;}
	.st37{fill-rule:evenodd;clip-rule:evenodd;fill:#C03021;}
	.st38{fill-rule:evenodd;clip-rule:evenodd;fill:#B33917;}
	.st39{fill-rule:evenodd;clip-rule:evenodd;fill:#C4992E;}
	.st40{fill-rule:evenodd;clip-rule:evenodd;fill:#963026;}
</style>
<rect x="-2" y="-1.9" class="st0" width="2267.7" height="2267.7"/>
<path class="st1" d="M605.4,382h585.1c20.6,0,37.5,16.9,37.5,37.5v175c0,20.6-16.9,37.5-37.5,37.5H719.2
	c-0.1,27.1,5.7,57.1,18.3,82.4c-26.6-28.6-43.7-53.3-53.9-82.4h-78.2c-20.6,0-37.5-16.9-37.5-37.5v-175
	C567.9,398.9,584.7,382,605.4,382z"/>
<path class="st2" d="M1787.9,1034.7h-400.3c-67.1,0-122,54.9-122,122l0,0c0,67.1,54.9,122,122,122H1722
	c-0.2,25.9-5.8,54.4-17.8,78.5c25.4-27.2,41.9-51,51.9-78.5h31.8c67.1,0,122-54.9,122-122l0,0
	C1909.9,1089.6,1855,1034.7,1787.9,1034.7z"/>
<path class="st3" d="M995.4,592.4c147.8,0,267.6,84,267.6,187.6c0,103.6-119.8,187.6-267.6,187.6c-2.1,0-4.1,0-6.1-0.1
	c-4.5,47.9,3.7,105.9,27.3,153.3c-50.7-54.5-79.4-100.1-92.9-160.1c-1.6-0.3-3.1-0.6-4.7-0.9c-53.8-11.2-108.5-35.9-146.7-76.3
	c-26.9-28.4-44.4-63.9-44.4-103.6C727.8,676.4,847.6,592.4,995.4,592.4z"/>
<path class="st4" d="M1159.7,631.9H831.2c45.3-24.8,102.3-39.5,164.3-39.5C1057.3,592.4,1114.3,607.2,1159.7,631.9z"/>
<path class="st5" d="M1299.8,1187.2c-69.4,0-125.7,56.3-125.7,125.7c0,61.8,44.6,113.1,103.3,123.7c-0.6,24.7-6.2,51.5-17.5,74.3
	c23.5-25.3,39.4-47.5,49.4-72.7c65-4.9,116.2-59.1,116.2-125.3C1425.4,1243.5,1369.2,1187.2,1299.8,1187.2z"/>
<path class="st6" d="M1270.5,1190.6c14.8,50.7,61.8,88,117.1,88h33.1c-14.9-52.8-63.4-91.4-120.9-91.4
	C1289.7,1187.2,1279.9,1188.4,1270.5,1190.6z"/>
<path class="st7" d="M1175.4,488.7h264.2c31.1,0,56.6,25.5,56.6,56.6v264.2c0,31.1-25.5,56.6-56.6,56.6h-115.4
	c-1,42.4,7.6,90.3,27.5,130.4c-41.9-45-68.3-83.8-83.3-130.4h-93c-31.1,0-56.6-25.5-56.6-56.6V545.3
	C1118.8,514.2,1144.3,488.7,1175.4,488.7z"/>
<path class="st8" d="M1233.2,866.2h-57.8c-31.1,0-56.6-25.5-56.6-56.6v-196c85.7,31.3,144.2,94.1,144.2,166.5
	C1263,811.1,1252.3,840.4,1233.2,866.2z"/>
<path class="st9" d="M1228,488.7v105.8c0,20.6-16.9,37.5-37.5,37.5h-71.7v-86.6c0-31.1,25.5-56.6,56.6-56.6H1228z"/>
<path class="st10" d="M1159.7,631.9h-40.9v-18.4C1133.3,618.8,1146.9,625,1159.7,631.9z"/>
<path class="st7" d="M700.4,730.9c-104.6,0-189.3,59.4-189.3,132.7c0,73.3,84.8,132.7,189.3,132.7c1.5,0,2.9,0,4.3,0
	c3.2,33.9-2.6,74.9-19.3,108.4c35.9-38.5,56.2-70.8,65.7-113.2c1.1-0.2,2.2-0.4,3.3-0.7c38-7.9,76.8-25.4,103.8-54
	c19-20.1,31.4-45.2,31.4-73.3C889.7,790.3,805,730.9,700.4,730.9z"/>
<path class="st8" d="M855.3,939.9c-31.1-13.4-60.1-32-83-56.3c-26.9-28.4-44.4-63.9-44.4-103.6c0-16.2,2.9-31.9,8.4-46.8
	c87.4,11.7,153.5,65.6,153.5,130.4c0,28.1-12.4,53.2-31.4,73.3C857.3,937.9,856.3,938.9,855.3,939.9z"/>
<path class="st5" d="M1842.6,708.1h-492.9c-17.4,0-31.6,14.2-31.6,31.6V887c0,17.4,14.2,31.6,31.6,31.6h397.1
	c0.1,22.8-4.8,48.1-15.4,69.4c22.4-24.1,36.9-44.9,45.4-69.4h65.9c17.4,0,31.6-14.2,31.6-31.6V739.6
	C1874.2,722.3,1859.9,708.1,1842.6,708.1z"/>
<path class="st11" d="M1496.3,708.1h-146.7c-17.4,0-31.6,14.2-31.6,31.6V887c0,8.1,3.1,15.6,8.2,21.2c-1.7-14.3-2.4-28.5-2-42.1
	h115.4c31.1,0,56.6-25.5,56.6-56.6V708.1z"/>
<path class="st2" d="M628,551.7H401.6c-26.7,0-48.5,21.8-48.5,48.5v226.4c0,26.7,21.8,48.5,48.5,48.5h98.9
	c0.9,36.3-6.5,77.4-23.6,111.7c35.9-38.6,58.6-71.8,71.4-111.7H628c26.7,0,48.5-21.8,48.5-48.5V600.3
	C676.6,573.6,654.7,551.7,628,551.7z"/>
<path class="st12" d="M676.6,731.9c-93.3,8.2-165.4,64.1-165.4,131.7c0,20,6.3,38.9,17.6,55.9c8.2-14.2,14.7-28.7,19.7-44.3H628
	c26.7,0,48.5-21.8,48.5-48.5V731.9z"/>
<path class="st13" d="M676.6,631.9h-71.2c-20.6,0-37.5-16.9-37.5-37.5v-42.7H628c26.7,0,48.5,21.8,48.5,48.5V631.9z"/>
<path class="st7" d="M824.2,306.4c-57.9,0-104.8,46.9-104.8,104.8c0,51.5,37.2,94.4,86.2,103.2c-0.5,20.6-5.2,42.9-14.6,62
	c19.6-21.1,32.9-39.6,41.2-60.6c54.2-4,96.9-49.3,96.9-104.5C929,353.3,882.1,306.4,824.2,306.4z"/>
<path class="st9" d="M723.5,382c-2.7,9.3-4.1,19.1-4.1,29.2c0,51.5,37.2,94.4,86.2,103.2c-0.5,20.6-5.2,42.9-14.6,62
	c19.6-21.1,32.9-39.6,41.2-60.6c54.2-4,96.9-49.3,96.9-104.5c0-10.1-1.4-19.9-4.1-29.2H723.5z"/>
<path class="st2" d="M961.4,269.5h289.8c48.6,0,88.3,39.7,88.3,88.3l0,0c0,48.6-39.7,88.3-88.3,88.3h-242.1
	c0.1,18.8,4.2,39.4,12.9,56.9c-18.4-19.7-30.4-36.9-37.6-56.9h-23c-48.6,0-88.3-39.7-88.3-88.3l0,0
	C873.1,309.2,912.8,269.5,961.4,269.5z"/>
<path class="st14" d="M1228,446.1h-218.9c0.1,18.8,4.2,39.4,12.9,56.9c-18.4-19.7-30.4-36.9-37.6-56.9h-23
	c-40.2,0-74.3-27.2-84.9-64.1h314.1c20.6,0,37.5,16.9,37.5,37.5V446.1z"/>
<path class="st12" d="M925.5,438.4c-30.8-13.8-52.4-44.8-52.4-80.6l0,0c0-12.4,2.6-24.3,7.3-35.1c29.2,18.6,48.6,51.3,48.6,88.5
	C929,420.6,927.8,429.7,925.5,438.4z"/>
<path class="st15" d="M925.5,438.4c-23.6-10.6-41.8-31.3-49-56.4h48.4c2.7,9.3,4.1,19.1,4.1,29.2C929,420.6,927.8,429.7,925.5,438.4
	z"/>
<path class="st1" d="M347.9,734.2c55.7,0,100.8,45.1,100.8,100.8c0,49.6-35.8,90.8-82.9,99.2c0.5,19.8,5,41.3,14.1,59.6
	c-18.9-20.3-31.6-38.1-39.6-58.3c-52.1-3.9-93.2-47.4-93.2-100.5C247.1,779.4,292.2,734.2,347.9,734.2z"/>
<path class="st16" d="M353.1,734.4c53.3,2.7,95.7,46.7,95.7,100.7c0,14.3-3,27.9-8.3,40.2h-38.9c-26.7,0-48.5-21.8-48.5-48.5V734.4z
	"/>
<path class="st3" d="M1799,839.6c-110.4,0-199.9,62.8-199.9,140.2c0,77.4,89.5,140.2,199.9,140.2c1.5,0,3.1,0,4.6,0
	c3.4,35.7-2.8,79.1-20.4,114.5c37.9-40.7,59.3-74.8,69.4-119.6c1.2-0.2,2.3-0.5,3.5-0.7c40.2-8.4,81.1-26.8,109.6-57
	c20.1-21.2,33.2-47.7,33.2-77.4C1998.9,902.4,1909.4,839.6,1799,839.6z"/>
<path class="st13" d="M1787.9,1034.7H1615c30.5,50.1,101.4,85.3,184,85.3c1.5,0,3.1,0,4.6,0c3.4,35.7-2.8,79.1-20.4,114.5
	c37.9-40.7,59.3-74.8,69.4-119.6c1.2-0.2,2.3-0.5,3.5-0.7c13.7-2.9,27.5-6.9,40.8-12.1C1876.8,1062.2,1835.4,1034.7,1787.9,1034.7z"
	/>
<path class="st17" d="M1619.1,918.6h127.6c0.1,22.8-4.8,48.1-15.4,69.4c22.4-24.1,36.9-44.9,45.4-69.4h65.9
	c17.4,0,31.6-14.2,31.6-31.6v-37.2c-23.2-6.6-48.6-10.3-75.2-10.3C1719.8,839.6,1651.4,871.8,1619.1,918.6z"/>
<path class="st1" d="M1046.8,1192.5H847.7c-23.5,0-42.7,19.2-42.7,42.7v199.2c0,23.5,19.2,42.7,42.7,42.7h87
	c0.8,31.9-5.7,68-20.7,98.3c31.6-33.9,51.5-63.2,62.8-98.3h70.1c23.5,0,42.7-19.2,42.7-42.7v-199.2
	C1089.5,1211.7,1070.3,1192.5,1046.8,1192.5z"/>
<path class="st5" d="M1010.6,1407.9c59.4,0,107.6,48.2,107.6,107.6c0,52.9-38.2,96.9-88.5,105.9c0.5,21.1,5.3,44.1,15,63.6
	c-20.1-21.6-33.7-40.6-42.3-62.2c-55.6-4.2-99.5-50.6-99.5-107.3C903,1456.1,951.1,1407.9,1010.6,1407.9z"/>
<path class="st18" d="M910.1,1477h24.6c0.7,29.7-4.8,62.9-17.6,91.7c0.4,0.7,0.8,1.3,1.1,2c29.2-32,47.8-60.2,58.6-93.7h70.1
	c21,0,38.5-15.3,42-35.3c-19.6-20.8-47.4-33.8-78.3-33.8C964.7,1407.9,925.6,1436.6,910.1,1477z"/>
<path class="st7" d="M1029.2,1585c-43.2,0-78.3,24.6-78.3,54.9c0,30.3,35.1,54.9,78.3,54.9c0.6,0,1.2,0,1.8,0c1.3,14-1.1,31-8,44.9
	c14.8-15.9,23.2-29.3,27.2-46.8c0.5-0.1,0.9-0.2,1.4-0.3c15.7-3.3,31.8-10.5,42.9-22.3c7.9-8.3,13-18.7,13-30.3
	C1107.5,1609.6,1072.4,1585,1029.2,1585z"/>
<path class="st19" d="M1029.2,1585c-28.5,0-53.4,10.7-67.1,26.6c12.3,6.2,25.9,10.1,40.3,11.2c8.5,21.6,22.1,40.6,42.3,62.2
	c-9.7-19.5-14.5-42.5-15-63.6c18.8-3.4,36-11.7,50-23.5C1066.1,1589.9,1048.5,1585,1029.2,1585z"/>
<path class="st3" d="M1017,1660.6h77.8c9.2,0,16.7,7.5,16.7,16.7v77.8c0,9.2-7.5,16.7-16.7,16.7h-34c-0.3,12.5,2.2,26.6,8.1,38.4
	c-12.3-13.3-20.1-24.7-24.5-38.4H1017c-9.2,0-16.7-7.5-16.7-16.7v-77.8C1000.3,1668.1,1007.8,1660.6,1017,1660.6z"/>
<path class="st20" d="M1000.3,1690.9c8.9,2.5,18.7,3.9,28.9,3.9c0.6,0,1.2,0,1.8,0c1.3,14-1.1,31-8,44.9
	c14.8-15.9,23.2-29.3,27.2-46.8c0.5-0.1,0.9-0.2,1.4-0.3c15.7-3.3,31.8-10.5,42.9-22.3c2.5-2.6,4.7-5.4,6.5-8.4
	c-1.9-0.8-4-1.2-6.2-1.2H1017c-9.2,0-16.7,7.5-16.7,16.7V1690.9z"/>
<path class="st21" d="M1024,1660.6c6,8,12.8,16,20.7,24.4c-3.8-7.7-6.9-16-9.3-24.4H1024z"/>
<path class="st1" d="M1080.3,1745.9c-24.6,0-44.6,19.9-44.6,44.6c0,21.9,15.8,40.1,36.6,43.9c-0.2,8.8-2.2,18.2-6.2,26.3
	c8.3-9,14-16.8,17.5-25.8c23-1.7,41.2-21,41.2-44.4C1124.9,1765.9,1104.9,1745.9,1080.3,1745.9z"/>
<path class="st16" d="M1111.2,1758.3c-1.5,7.6-8.3,13.4-16.4,13.4h-34c-0.3,12.5,2.2,26.6,8.1,38.4c-12.3-13.3-20.1-24.7-24.5-38.4
	h-4.5c7.1-15.3,22.5-25.8,40.4-25.8C1092.3,1745.9,1103.2,1750.6,1111.2,1758.3z"/>
<path class="st2" d="M1099.9,1819.8c21.3,0,38.6,12.1,38.6,27.1s-17.3,27.1-38.6,27.1c-0.3,0-0.6,0-0.9,0
	c-0.7,6.9,0.5,15.3,3.9,22.1c-7.3-7.9-11.5-14.5-13.4-23.1c-0.2,0-0.4-0.1-0.7-0.1c-7.8-1.6-15.7-5.2-21.2-11
	c-3.9-4.1-6.4-9.2-6.4-15C1061.3,1831.9,1078.6,1819.8,1099.9,1819.8z"/>
<path class="st16" d="M1099.9,1819.8c4.4,0,8.7,0.5,12.6,1.5c-7.4,7.7-17.5,12.8-28.8,13.7c-3.5,8.8-9.1,16.6-17.3,25.5l-0.1-0.1
	c3.9-8,5.8-17.4,6-26c-1.9-0.3-3.8-0.8-5.6-1.4C1073.5,1825,1085.8,1819.8,1099.9,1819.8z"/>
<path class="st5" d="M1134.2,1851h-34.9c-4.1,0-7.5,3.4-7.5,7.5v34.9c0,4.1,3.4,7.5,7.5,7.5h15.3c0.1,5.6-1,11.9-3.6,17.2
	c5.5-6,9-11.1,11-17.2h12.3c4.1,0,7.5-3.4,7.5-7.5v-34.9C1141.7,1854.4,1138.3,1851,1134.2,1851z"/>
<path class="st6" d="M1134.2,1851h-34.9c-4.1,0-7.5,3.4-7.5,7.5v21.6c2.3,5.5,5.9,10.4,11.1,16c-3.4-6.8-4.6-15.2-3.9-22.1
	c0.3,0,0.6,0,0.9,0c18.9,0,34.6-9.5,38-22C1136.8,1851.4,1135.5,1851,1134.2,1851z"/>
<path class="st1" d="M1132.3,1883.7c12.1,0,21.9,9.8,21.9,21.9c0,10.8-7.8,19.7-18,21.5c0.1,4.3,1.1,9,3.1,12.9
	c-4.1-4.4-6.9-8.3-8.6-12.6c-11.3-0.8-20.2-10.3-20.2-21.8C1110.4,1893.5,1120.2,1883.7,1132.3,1883.7z"/>
<path class="st18" d="M1132.3,1883.7c3.4,0,6.5,0.8,9.4,2.1v7.6c0,4.1-3.4,7.5-7.5,7.5h-12.3c-1.7,5.3-4.6,9.9-8.9,14.9
	c-0.2-0.4-0.4-0.8-0.6-1.2c1.6-4.4,2.3-9.3,2.1-13.7h-3.6C1113.1,1891,1121.8,1883.7,1132.3,1883.7z"/>
<path class="st7" d="M1156.9,1933.9c-9.5,0-17.2,5.4-17.2,12.1c0,6.7,7.7,12.1,17.2,12.1c0.1,0,0.3,0,0.4,0c0.3,3.1-0.2,6.8-1.8,9.9
	c3.3-3.5,5.1-6.4,6-10.3c0.1,0,0.2,0,0.3-0.1c3.5-0.7,7-2.3,9.4-4.9c1.7-1.8,2.9-4.1,2.9-6.7
	C1174.1,1939.3,1166.4,1933.9,1156.9,1933.9z"/>
<path class="st3" d="M1169,1967.2h11.7c1.4,0,2.5,1.1,2.5,2.5v11.7c0,1.4-1.1,2.5-2.5,2.5h-5.1c0,1.9,0.3,4,1.2,5.8
	c-1.9-2-3-3.7-3.7-5.8h-4.1c-1.4,0-2.5-1.1-2.5-2.5v-11.7C1166.5,1968.4,1167.7,1967.2,1169,1967.2z"/>
<path class="st7" d="M1932.7,768.4c-48.6,0-88,39.4-88,88c0,43.2,31.2,79.2,72.3,86.6c-0.4,17.3-4.3,36-12.3,52
	c16.5-17.7,27.6-33.2,34.5-50.9c45.5-3.4,81.3-41.4,81.3-87.7C2020.6,807.7,1981.2,768.4,1932.7,768.4z"/>
<path class="st19" d="M1863.5,910.6c6.5-5.8,10.7-14.2,10.7-23.6v-96.4c-18.1,16.1-29.5,39.6-29.5,65.7
	C1844.7,876.8,1851.7,895.7,1863.5,910.6z"/>
<path class="st8" d="M1845.6,843.4c-0.6,4.2-0.9,8.5-0.9,12.9c0,43.2,31.2,79.2,72.3,86.6c-0.4,17.3-4.3,36-12.3,52
	c16.5-17.7,27.6-33.2,34.5-50.9c16.8-1.3,32.3-7.2,45.2-16.6C1960.5,885.8,1908.9,854.1,1845.6,843.4z"/>
<path class="st3" d="M429.9,910.5H301.1c-15.2,0-27.6,12.4-27.6,27.6v128.8c0,15.2,12.4,27.6,27.6,27.6h56.3
	c0.5,20.7-3.7,44-13.4,63.5c20.4-22,33.3-40.9,40.6-63.5h45.3c15.2,0,27.6-12.4,27.6-27.6V938.1
	C457.5,922.9,445.1,910.5,429.9,910.5z"/>
<path class="st4" d="M414.9,910.5H301.1c-5.5,0-10.5,1.6-14.8,4.4c15.2,11.7,33.8,19.3,54,20.8c8,20.2,20.7,38,39.6,58.3
	c-9.1-18.3-13.6-39.8-14.1-59.6C384.5,931,401.3,922.5,414.9,910.5z"/>
<path class="st5" d="M460.6,1002.6H857c66.4,0,120.8,54.3,120.8,120.8l0,0c0,66.4-54.3,120.8-120.8,120.8H525.9
	c0.2,25.7,5.8,53.9,17.7,77.8c-25.1-27-41.5-50.5-51.4-77.8h-31.5c-66.4,0-120.8-54.3-120.8-120.8l0,0
	C339.9,1057,394.2,1002.6,460.6,1002.6z"/>
<path class="st18" d="M955.8,1192.5c-21.9,31.2-58.1,51.6-98.9,51.6h-52v-9c0-23.5,19.2-42.7,42.7-42.7H955.8z"/>
<path class="st22" d="M343.4,1094.5h14c0.5,20.2-3.5,43-12.8,62.3c0,0.2,0.1,0.3,0.1,0.5c20-21.6,32.6-40.3,39.9-62.7h45.3
	c15.2,0,27.6-12.4,27.6-27.6v-64.2C402.4,1004.1,356.2,1042.9,343.4,1094.5z"/>
<path class="st11" d="M705.3,1002.6h43.1c-10.5,37.1-30.3,67-62.9,102.1C701.1,1073.3,707.2,1035.2,705.3,1002.6z"/>
<path class="st7" d="M1377.7,1185.6h145.2c17.1,0,31.1,14,31.1,31.1v145.2c0,17.1-14,31.1-31.1,31.1h-63.4
	c-0.6,23.3,4.2,49.6,15.1,71.6c-23-24.7-37.5-46.1-45.8-71.6h-51.1c-17.1,0-31.1-14-31.1-31.1v-145.2
	C1346.6,1199.6,1360.6,1185.6,1377.7,1185.6z"/>
<path class="st23" d="M1346.6,1271.5c12.8,4.6,26.6,7.1,41,7.1H1554v-62c0-17.1-14-31.1-31.1-31.1h-145.2c-17.1,0-31.1,14-31.1,31.1
	V1271.5z"/>
<path class="st19" d="M1396.6,1392.9h-18.9c-17.1,0-31.1-14-31.1-31.1v-145.2c0-6.7,2.1-12.9,5.8-18c43.2,19.9,73.1,63.5,73.1,114.2
	C1425.4,1343.3,1414.6,1371.2,1396.6,1392.9z"/>
<path class="st24" d="M1346.6,1271.5v-54.8c0-5.9,2.6-12.7,5.9-17.9c17.6,7.7,58.6,34.5,68.3,79.8h-33.1
	C1373.2,1278.6,1359.4,1276.1,1346.6,1271.5z"/>
<path class="st1" d="M1385.9,288.3c69.4,0,125.7,56.3,125.7,125.7c0,61.8-44.6,113.1-103.3,123.7c0.6,24.7,6.2,51.5,17.5,74.3
	c-23.5-25.3-39.4-47.5-49.4-72.7c-65-4.9-116.2-59.1-116.2-125.3C1260.2,344.5,1316.5,288.3,1385.9,288.3z"/>
<path class="st25" d="M1475.8,501.8c-17.9,18.3-41.3,31.2-67.5,35.9c0.6,24.7,6.2,51.5,17.5,74.3c-23.5-25.3-39.4-47.5-49.4-72.7
	c-37.5-2.8-70.4-22.1-91.6-50.6h154.8C1453.4,488.7,1466,493.6,1475.8,501.8z"/>
<path class="st16" d="M1264.1,445.1c-2.5-10-3.9-20.4-3.9-31.2c0-46.2,24.9-86.6,62.1-108.4c10.8,14.7,17.2,32.7,17.2,52.2l0,0
	C1339.5,402,1306.6,438.8,1264.1,445.1z"/>
<path class="st3" d="M1704.9,402.9h-282.2c-9.9,0-18.1,8.1-18.1,18.1v84.4c0,9.9,8.1,18.1,18.1,18.1H1650c0,13.1-2.7,27.5-8.8,39.7
	c12.8-13.8,21.1-25.7,26-39.7h37.7c9.9,0,18.1-8.1,18.1-18.1V421C1723,411,1714.8,402.9,1704.9,402.9z"/>
<path class="st4" d="M1511.1,402.9c0.3,3.6,0.5,7.3,0.5,11.1c0,47-25.8,87.9-63.9,109.5h-24.9c-9.9,0-18.1-8.1-18.1-18.1V421
	c0-9.9,8.1-18.1,18.1-18.1H1511.1z"/>
<path class="st26" d="M1475.8,501.8c-8.3,8.5-17.7,15.8-28.1,21.6h-24.9c-9.9,0-18.1-8.1-18.1-18.1v-16.7h35
	C1453.4,488.7,1466,493.6,1475.8,501.8z"/>
<path class="st2" d="M1696.4,475.7c-108.7,0-196.8,61.8-196.8,138c0,76.2,88.1,138,196.8,138c1.5,0,3,0,4.5,0
	c3.3,35.2-2.7,77.8-20.1,112.7c37.3-40,58.4-73.6,68.3-117.7c1.1-0.2,2.3-0.5,3.4-0.7c39.5-8.2,79.8-26.4,107.9-56.1
	c19.8-20.9,32.7-47,32.7-76.2C1893.2,537.4,1805.1,475.7,1696.4,475.7z"/>
<path class="st27" d="M1839.9,708.1H1553c35.9,26.8,86.9,43.5,143.4,43.5c1.5,0,3,0,4.5,0c3.3,35.2-2.7,77.8-20.1,112.7
	c37.3-40,58.4-73.6,68.3-117.7c1.1-0.2,2.3-0.5,3.4-0.7C1783.3,739.5,1814.4,727.1,1839.9,708.1z"/>
<path class="st28" d="M1547.6,523.4H1650c0,13.1-2.7,27.5-8.8,39.7c12.8-13.8,21.1-25.7,26-39.7h37.7c9.9,0,18.1-8.1,18.1-18.1
	v-28.4c-8.7-0.8-17.5-1.3-26.5-1.3C1637,475.7,1583.6,494.2,1547.6,523.4z"/>
<path class="st1" d="M1587.3,883.6c55.7,0,100.8,45.1,100.8,100.8c0,49.6-35.8,90.8-82.9,99.2c0.5,19.8,5,41.3,14.1,59.6
	c-18.9-20.3-31.6-38.1-39.6-58.3c-52.1-3.9-93.2-47.4-93.2-100.5C1486.5,928.7,1531.6,883.6,1587.3,883.6z"/>
<path class="st16" d="M1674.7,1034.7c-14.6,25.3-39.8,43.6-69.5,49c0.5,19.8,5,41.3,14.1,59.6c-18.9-20.3-31.6-38.1-39.6-58.3
	c-34.2-2.6-63.6-22.1-79.8-50.3H1674.7z"/>
<path class="st29" d="M1674.7,1034.7H1615c7.3,12.1,17,23.3,28.7,33.3C1656.4,1059.4,1667,1048,1674.7,1034.7z"/>
<path class="st30" d="M1510.9,918.6h152.9c-18.5-21.5-45.9-35.1-76.4-35.1C1556.8,883.6,1529.4,897.2,1510.9,918.6z"/>
<path class="st31" d="M1619.1,918.6h44.7c-7.4-8.6-16.2-15.9-26.1-21.6C1630.6,903.8,1624.3,911,1619.1,918.6z"/>
<path class="st3" d="M1917.3,606.2h-108.4c-12.8,0-23.2,10.5-23.2,23.2v108.4c0,12.8,10.5,23.2,23.2,23.2h47.4
	c0.4,17.4-3.1,37-11.3,53.5c17.2-18.5,28-34.4,34.2-53.5h38.2c12.8,0,23.2-10.5,23.2-23.2V629.4
	C1940.5,616.6,1930.1,606.2,1917.3,606.2z"/>
<path class="st17" d="M1842.6,708.1h-56.9v29.8c0,12.8,10.5,23.2,23.2,23.2h47.4c0.4,17.4-3.1,37-11.3,53.5
	c13.3-14.3,22.8-27,29.2-40.8v-34.1C1874.2,722.3,1859.9,708.1,1842.6,708.1z"/>
<path class="st27" d="M1839.9,708.1h-54.3v28.6C1804.9,729.7,1823.6,720.3,1839.9,708.1z"/>
<path class="st13" d="M1892.9,606.2h-84c-12.8,0-23.2,10.5-23.2,23.2v107.2c28.1-10,54.6-25.4,74.9-46.8
	c19.8-20.9,32.7-47,32.7-76.2C1893.2,611.1,1893.1,608.7,1892.9,606.2z"/>
<path class="st3" d="M492.2,450.9h108.4c12.8,0,23.2,10.5,23.2,23.2v108.4c0,12.8-10.5,23.2-23.2,23.2h-47.4
	c-0.4,17.4,3.1,37,11.3,53.5c-17.2-18.5-28-34.4-34.2-53.5h-38.2c-12.8,0-23.2-10.5-23.2-23.2V474.1
	C469,461.4,479.5,450.9,492.2,450.9z"/>
<path class="st4" d="M567.9,450.9h32.8c12.8,0,23.2,10.5,23.2,23.2v108.4c0,12.8-10.5,23.2-23.2,23.2h-31c-1.1-3.6-1.8-7.4-1.8-11.3
	V450.9z"/>
<path class="st32" d="M623.9,551.7v30.8c0,12.8-10.5,23.2-23.2,23.2h-31c-1.1-3.6-1.8-7.4-1.8-11.3v-42.7H623.9z"/>
<path class="st7" d="M1536.9,336.6c-43.2,0-78.3,24.6-78.3,54.9c0,30.3,35.1,54.9,78.3,54.9c0.6,0,1.2,0,1.8,0c1.3,14-1.1,31-8,44.9
	c14.8-15.9,23.2-29.3,27.2-46.8c0.5-0.1,0.9-0.2,1.4-0.3c15.7-3.3,31.8-10.5,42.9-22.3c7.9-8.3,13-18.7,13-30.3
	C1615.2,361.2,1580.1,336.6,1536.9,336.6z"/>
<path class="st9" d="M1492,346.6c-20.2,9.9-33.4,26.4-33.4,45c0,23.2,20.6,43.1,49.7,51.1c2.2-9.2,3.3-18.8,3.3-28.7
	C1511.6,389.2,1504.4,366,1492,346.6z"/>
<path class="st10" d="M1460.3,402.9c5.5,18.2,23.8,33.1,48,39.8c2.2-9.2,3.3-18.8,3.3-28.7c0-3.7-0.2-7.4-0.5-11.1H1460.3z"/>
<path class="st7" d="M361.9,650.2c43.2,0,78.3,24.6,78.3,54.9c0,30.3-35.1,54.9-78.3,54.9c-0.6,0-1.2,0-1.8,0c-1.3,14,1.1,31,8,44.9
	c-14.8-15.9-23.2-29.3-27.2-46.8c-0.5-0.1-0.9-0.2-1.4-0.3c-15.7-3.3-31.8-10.5-42.9-22.3c-7.9-8.3-13-18.7-13-30.3
	C283.6,674.8,318.7,650.2,361.9,650.2z"/>
<path class="st9" d="M404.2,751.4c-12.2,5.5-26.7,8.7-42.3,8.7c-0.6,0-1.2,0-1.8,0c-1.3,14,1.1,31,8,44.9
	c-14.8-15.9-23.2-29.3-27.2-46.8c-0.5-0.1-0.9-0.2-1.4-0.3c-11.8-2.5-23.8-7.1-33.7-14.3c12.8-5.9,27.1-9.2,42.1-9.2
	C368.8,734.2,388.1,740.5,404.2,751.4z"/>
<path class="st23" d="M353.1,650.6v135.7c4,6.1,9,12.1,15,18.6c-6.9-13.9-9.3-30.8-8-44.9c0.6,0,1.2,0,1.8,0
	c43.2,0,78.3-24.6,78.3-54.9c0-30.3-35.1-54.9-78.3-54.9C358.9,650.2,356,650.3,353.1,650.6z"/>
<path class="st3" d="M1615.9,1230.4c-52.2,0-94.5,29.7-94.5,66.3c0,36.6,42.3,66.3,94.5,66.3c0.7,0,1.4,0,2.2,0
	c1.6,16.9-1.3,37.4-9.6,54.2c17.9-19.2,28.1-35.4,32.8-56.6c0.5-0.1,1.1-0.2,1.6-0.3c19-4,38.3-12.7,51.8-27
	c9.5-10,15.7-22.6,15.7-36.6C1710.4,1260,1668.1,1230.4,1615.9,1230.4z"/>
<path class="st13" d="M1615.9,1230.4c-43.3,0-79.8,20.4-91,48.3h182C1695.7,1250.8,1659.2,1230.4,1615.9,1230.4z"/>
<path class="st20" d="M1554,1246.5c-20,12.2-32.6,30.1-32.6,50.1c0,20,12.6,38,32.6,50.1V1246.5z"/>
<path class="st33" d="M1524.8,1278.6h29.1v-32.1C1540.2,1254.9,1529.9,1266,1524.8,1278.6z"/>
<path class="st7" d="M696.8,1182.6h145.2c17.1,0,31.1,14,31.1,31.1v145.2c0,17.1-14,31.1-31.1,31.1h-63.4
	c-0.6,23.3,4.2,49.6,15.1,71.6c-23-24.7-37.5-46.1-45.8-71.6h-51.1c-17.1,0-31.1-14-31.1-31.1v-145.2
	C665.7,1196.6,679.7,1182.6,696.8,1182.6z"/>
<path class="st9" d="M864.7,1192.5h-17c-23.5,0-42.7,19.2-42.7,42.7v154.8h37c17.1,0,31.1-14,31.1-31.1v-145.2
	C873,1205.5,869.9,1198.1,864.7,1192.5z"/>
<path class="st19" d="M696.8,1182.6h145.2c17.1,0,31.1,14,31.1,31.1v29.4c-5.3,0.7-10.6,1.1-16.1,1.1H665.7v-30.5
	C665.7,1196.6,679.7,1182.6,696.8,1182.6z"/>
<path class="st34" d="M864.7,1192.5c5.2,5.6,8.4,13,8.4,21.2v29.4c-2.5,0.3-5,0.6-7.5,0.8l-0.3,0l-0.3,0c-0.3,0-0.6,0-1,0.1
	c-0.4,0-0.7,0-1.1,0.1l-0.6,0c-0.5,0-1,0-1.5,0.1l-0.2,0c-0.6,0-1.2,0-1.8,0l-0.1,0c-0.6,0-1.2,0-1.9,0h-52v-9
	c0-23.5,19.2-42.7,42.7-42.7H864.7z"/>
<path class="st3" d="M629.7,1223.4c-50.3,0-91.1,28.6-91.1,63.9c0,35.3,40.8,63.9,91.1,63.9c0.7,0,1.4,0,2.1,0
	c1.5,16.3-1.3,36-9.3,52.2c17.3-18.5,27-34.1,31.6-54.5c0.5-0.1,1.1-0.2,1.6-0.3c18.3-3.8,36.9-12.2,49.9-26
	c9.2-9.7,15.1-21.8,15.1-35.3C720.8,1252,680,1223.4,629.7,1223.4z"/>
<path class="st20" d="M665.7,1346c14.9-4.5,29.3-12.2,40-23.4c9.2-9.7,15.1-21.8,15.1-35.3c0-26.3-22.7-48.9-55.1-58.7V1346z"/>
<path class="st17" d="M629.7,1223.4c-26.6,0-50.5,8-67.1,20.7h134.3C680.2,1231.4,656.2,1223.4,629.7,1223.4z"/>
<path class="st21" d="M665.7,1244.1h31.1c-8.6-6.6-19.2-11.9-31.1-15.5V1244.1z"/>
<path class="st7" d="M1106.3,1357.5c-59.9,0-108.4,34-108.4,76c0,42,48.5,76,108.4,76c0.8,0,1.7,0,2.5,0
	c1.8,19.4-1.5,42.9-11.1,62.1c20.5-22.1,32.2-40.5,37.6-64.8c0.6-0.1,1.3-0.3,1.9-0.4c21.8-4.5,44-14.5,59.4-30.9
	c10.9-11.5,18-25.9,18-41.9C1214.6,1391.6,1166.1,1357.5,1106.3,1357.5z"/>
<path class="st19" d="M1004.1,1408.1c-4,8-6.2,16.5-6.2,25.4c0,42,48.5,76,108.4,76c0.8,0,1.7,0,2.5,0c1.8,19.4-1.5,42.9-11.1,62.1
	c4.2-4.6,8.1-9,11.6-13.3c5.7-13.1,8.9-27.6,8.9-42.8c0-59.4-48.2-107.6-107.6-107.6C1008.4,1407.9,1006.2,1408,1004.1,1408.1z"/>
<path class="st9" d="M1017.4,1477h29.4c23.5,0,42.7-19.2,42.7-42.7v-75.9c-51.9,5.7-91.6,37.1-91.6,75.1
	C997.9,1449.7,1005.1,1464.7,1017.4,1477z"/>
<path class="st34" d="M1017.4,1477h29.4c0.4,0,0.7,0,1,0c0.1,0,0.2,0,0.3,0c0.2,0,0.5,0,0.7,0c0.1,0,0.3,0,0.4,0c0.2,0,0.4,0,0.6,0
	c0.1,0,0.3,0,0.4,0c0.2,0,0.4,0,0.6-0.1c0.2,0,0.3,0,0.5,0c0.2,0,0.4,0,0.6-0.1l0.4-0.1c0.2,0,0.4-0.1,0.6-0.1c0.1,0,0.3,0,0.4-0.1
	c0.2,0,0.4-0.1,0.6-0.1c0.1,0,0.3,0,0.4-0.1c0.2,0,0.5-0.1,0.7-0.1l0.3-0.1c0.3-0.1,0.7-0.1,1-0.2l0.2-0.1c0.2-0.1,0.5-0.1,0.7-0.2
	c0.1,0,0.2-0.1,0.4-0.1c0.2-0.1,0.4-0.1,0.6-0.2c0.1,0,0.3-0.1,0.4-0.1c0.2-0.1,0.3-0.1,0.5-0.2l0.4-0.1c0.2-0.1,0.4-0.1,0.5-0.2
	l0.4-0.1c0.2-0.1,0.4-0.1,0.5-0.2l0.4-0.1c0.2-0.1,0.4-0.1,0.6-0.2c0.1,0,0.2-0.1,0.4-0.1c0.2-0.1,0.4-0.2,0.6-0.3
	c0.1,0,0.2-0.1,0.3-0.1c0.3-0.1,0.6-0.3,0.9-0.4c0.1,0,0.2-0.1,0.3-0.1c0.2-0.1,0.4-0.2,0.6-0.3c0.1-0.1,0.3-0.1,0.4-0.2
	c0.2-0.1,0.3-0.2,0.5-0.2c0.1-0.1,0.3-0.1,0.4-0.2c0.1-0.1,0.3-0.2,0.4-0.2c0.2-0.1,0.3-0.2,0.5-0.2l0.4-0.2
	c0.1-0.1,0.3-0.2,0.4-0.3l0.4-0.2c0.1-0.1,0.3-0.2,0.4-0.3c0.1-0.1,0.3-0.2,0.4-0.3c0.1-0.1,0.3-0.2,0.4-0.3
	c0.1-0.1,0.2-0.2,0.4-0.2c0.2-0.1,0.3-0.2,0.5-0.3c0.1-0.1,0.3-0.2,0.4-0.3c0.2-0.2,0.5-0.3,0.7-0.5c0.2-0.1,0.3-0.2,0.5-0.3
	c0.1-0.1,0.3-0.2,0.4-0.3c0.1-0.1,0.2-0.2,0.4-0.3c0.1-0.1,0.3-0.2,0.4-0.3c0.1-0.1,0.2-0.2,0.4-0.3c0.1-0.1,0.3-0.2,0.4-0.3
	l0.4-0.3c0.1-0.1,0.3-0.2,0.4-0.3l0.3-0.3c0.1-0.1,0.3-0.2,0.4-0.4l0.3-0.3c0.1-0.1,0.3-0.3,0.4-0.4l0.3-0.2
	c0.1-0.1,0.3-0.3,0.4-0.4l0.1-0.1c0.5-0.5,1-1.1,1.6-1.7l0.2-0.3c0.1-0.1,0.3-0.3,0.4-0.4c0.1-0.1,0.2-0.2,0.2-0.3
	c0.1-0.2,0.3-0.3,0.4-0.5l0.2-0.3c0.1-0.2,0.2-0.3,0.4-0.5l0.2-0.3c0.1-0.2,0.2-0.3,0.4-0.5l0.2-0.3c0.1-0.2,0.2-0.3,0.4-0.5
	l0.2-0.2c0.1-0.2,0.3-0.4,0.4-0.6l0.1-0.1c0.6-0.9,1.2-1.9,1.8-2.9l0.1-0.2c0.1-0.2,0.2-0.4,0.3-0.6l0.1-0.3
	c0.1-0.2,0.2-0.4,0.3-0.6l0.1-0.3c0.1-0.2,0.2-0.4,0.3-0.6l0.1-0.3c0.1-0.2,0.2-0.4,0.3-0.6l0.1-0.3c0.1-0.2,0.2-0.4,0.3-0.6
	l0.1-0.2c0.4-1.1,0.8-2.1,1.2-3.2l0-0.1c0.1-0.2,0.1-0.5,0.2-0.7l0.1-0.2c0.1-0.2,0.1-0.5,0.2-0.7l0.1-0.2c0.1-0.2,0.1-0.4,0.2-0.7
	l0.1-0.3c0.1-0.2,0.1-0.4,0.2-0.7l0.1-0.3c0.1-0.2,0.1-0.5,0.1-0.7l0-0.2c0-0.2,0.1-0.5,0.1-0.8c-19.6-20.8-47.4-33.8-78.3-33.8
	c-2.2,0-4.3,0.1-6.4,0.2c-4,8-6.2,16.5-6.2,25.4C997.9,1449.7,1005.1,1464.7,1017.4,1477z"/>
<path class="st3" d="M1148.3,1134.8c86.5,0,156.5,49.1,156.5,109.8c0,60.6-70.1,109.8-156.5,109.8c-1.2,0-2.4,0-3.6,0
	c-2.6,28,2.2,61.9,16,89.7c-29.7-31.9-46.5-58.5-54.4-93.6c-0.9-0.2-1.8-0.4-2.7-0.6c-31.4-6.6-63.5-21-85.8-44.6
	c-15.7-16.6-26-37.4-26-60.6C991.8,1183.9,1061.9,1134.8,1148.3,1134.8z"/>
<path class="st17" d="M1282.8,1188.4c-61.4,8.3-108.7,60.9-108.7,124.5c0,13.7,2.2,26.8,6.2,39.1c71.1-10.4,124.5-54.5,124.5-107.5
	C1304.9,1224,1296.8,1204.8,1282.8,1188.4z"/>
<path class="st35" d="M1282.8,1188.4c-4.2,0.6-8.3,1.3-12.3,2.3c6.3,21.5,18.3,40.5,34.3,55.4c0-0.5,0-1,0-1.5
	C1304.9,1224,1296.8,1204.8,1282.8,1188.4z"/>
<path class="st4" d="M1089.5,1346.3c-26.7-7.6-52.7-21.1-71.7-41.1c-15.7-16.6-26-37.4-26-60.6c0-18.8,6.8-36.6,18.7-52.1h36.3
	c23.5,0,42.7,19.2,42.7,42.7V1346.3z"/>
<path class="st3" d="M1394.8,836.1c-72.1,0-130.5,58.4-130.5,130.5c0,64.2,46.3,117.5,107.3,128.5c-0.6,25.6-6.4,53.5-18.2,77.2
	c24.4-26.3,40.9-49.3,51.3-75.5c67.5-5,120.7-61.4,120.7-130.2C1525.3,894.6,1466.9,836.1,1394.8,836.1z"/>
<path class="st17" d="M1394.8,836.1c-28.7,0-55.2,9.3-76.7,24.9v26c0,17.4,14.2,31.6,31.6,31.6h166.5
	C1497,870.3,1449.9,836.1,1394.8,836.1z"/>
<path class="st20" d="M1467.9,858.6c-8.3,4.8-18,7.6-28.3,7.6h-115.4c-1,42.4,7.6,90.3,27.5,130.4c-31.2-33.5-53.8-63.6-69.5-96
	c22.7-38.5,64.6-64.4,112.6-64.4C1421.9,836.1,1447.1,844.4,1467.9,858.6z"/>
<g>
	<path class="st36" d="M1467.9,858.6c-8.3,4.8-18,7.6-28.2,7.6H1396v-30l1.3,0c-0.4,0-0.8,0-1.3,0c0.4,0,0.8,0,1.3,0l0,0l0.1,0
		c0.8,0,1.6,0,2.5,0.1l0.1,0c0.8,0,1.6,0.1,2.4,0.1l0.2,0c0.8,0,1.6,0.1,2.4,0.2l0.2,0c0.8,0.1,1.6,0.1,2.3,0.2l0.2,0
		c0.8,0.1,1.5,0.2,2.3,0.2l0.3,0c0.7,0.1,1.5,0.2,2.2,0.3l0.3,0c0.7,0.1,1.5,0.2,2.2,0.3l0.3,0c0.7,0.1,1.4,0.2,2.1,0.4l0.3,0.1
		c0.7,0.1,1.4,0.3,2.1,0.4l0.4,0.1c0.7,0.1,1.4,0.3,2,0.4l0.4,0.1c0.7,0.1,1.3,0.3,2,0.5l0.4,0.1c0.7,0.2,1.3,0.3,2,0.5l0.4,0.1
		c0.7,0.2,1.3,0.3,2,0.5l0.4,0.1c0.6,0.2,1.3,0.4,1.9,0.6l0.5,0.1c0.6,0.2,1.2,0.4,1.9,0.6l0.5,0.2c0.6,0.2,1.2,0.4,1.8,0.6l0.4,0.1
		c0.6,0.2,1.2,0.4,1.9,0.6l0.5,0.2c0.6,0.2,1.2,0.4,1.8,0.7l0.5,0.2c0.6,0.2,1.2,0.5,1.8,0.7l0.5,0.2c0.6,0.2,1.2,0.5,1.8,0.7
		l0.5,0.2c0.6,0.3,1.2,0.5,1.8,0.8l0.4,0.2c0.6,0.3,1.2,0.5,1.7,0.8l0.5,0.2c0.6,0.3,1.1,0.5,1.7,0.8l0.5,0.2
		c0.6,0.3,1.1,0.6,1.7,0.9l0.4,0.2c0.6,0.3,1.1,0.6,1.7,0.9l0.5,0.2c0.6,0.3,1.1,0.6,1.7,0.9l0.5,0.3c0.5,0.3,1.1,0.6,1.6,0.9
		l0.5,0.3c0.5,0.3,1.1,0.6,1.6,1l0.5,0.3c0.5,0.3,1,0.6,1.5,0.9l0.6,0.4c0.5,0.3,1,0.6,1.5,1l0.5,0.3
		C1467.5,858.3,1467.7,858.4,1467.9,858.6z M1396,866.2h-13.6v-29.4l0.9-0.1c-0.3,0-0.6,0.1-0.9,0.1l0,0c0.3,0,0.6-0.1,0.9-0.1
		l0.4,0c0.6-0.1,1.2-0.1,1.9-0.1l0.4,0c0.6,0,1.3-0.1,1.9-0.1l0.1,0l0,0c0.6,0,1.3-0.1,1.9-0.1l0.4,0c0.6,0,1.3,0,1.9,0l0.4,0
		c0.7,0,1.3,0,2,0c0.4,0,0.8,0,1.3,0c-0.4,0-0.8,0-1.3,0l1.3,0V866.2z M1382.5,866.2h-58.2c-0.3,13.6,0.3,27.8,2,42.1
		c-5.1-5.6-8.2-13.1-8.2-21.2v-26c1-0.7,2-1.4,3-2.1l0.1-0.1c5.1-3.5,10.5-6.7,16.1-9.4l0.1,0c1.8-0.9,3.7-1.8,5.6-2.6l0.2-0.1
		c1.9-0.8,3.7-1.6,5.6-2.3l0.4-0.1c0.6-0.2,1.2-0.5,1.9-0.7l0.4-0.1c0.4-0.1,0.7-0.3,1.1-0.4l0.3-0.1c0.6-0.2,1.2-0.4,1.8-0.6
		l0.7-0.2c0.5-0.2,1-0.3,1.5-0.5l0.7-0.2c0.3-0.1,0.6-0.2,1-0.3c0.4-0.1,0.9-0.3,1.3-0.4c0.3-0.1,0.6-0.2,0.8-0.2
		c0.3-0.1,0.7-0.2,1-0.3c0.4-0.1,0.7-0.2,1.1-0.3c0.4-0.1,0.8-0.2,1.2-0.3l0.8-0.2c0.5-0.1,1-0.2,1.5-0.3l0.7-0.2
		c0.4-0.1,0.8-0.2,1.3-0.3l0.7-0.1c0.5-0.1,1-0.2,1.5-0.3l0.7-0.1c0.5-0.1,1.1-0.2,1.6-0.3l0.6-0.1c0.5-0.1,1-0.2,1.5-0.2l0.4-0.1
		c0.6-0.1,1.2-0.2,1.7-0.2l0.6-0.1c0.6-0.1,1.2-0.2,1.8-0.2l0.4-0.1c0.6-0.1,1.2-0.1,1.8-0.2l0.2,0c0.3,0,0.6-0.1,0.9-0.1l0,0
		c-0.3,0-0.6,0.1-0.9,0.1l0.9-0.1V866.2z"/>
</g>
<path class="st13" d="M1308.1,1064.3c17.6,15.6,39.3,26.5,63.4,30.8c-0.6,25.6-6.4,53.5-18.2,77.2c24.4-26.3,40.9-49.3,51.3-75.5
	c43-3.2,80.3-27.3,101.6-62.2h-118.6C1357.3,1034.7,1329.5,1045.9,1308.1,1064.3z"/>
<path class="st4" d="M1503,1039.7c14.1-20.8,22.3-46,22.3-73c0-18.5-3.9-36.1-10.8-52c-17.4,18.1-28,42.7-28,69.8
	C1486.5,1004.8,1492.6,1023.8,1503,1039.7z"/>
<path class="st1" d="M1310.1,924H811c-17.6,0-32,14.4-32,32v149.2c0,17.6,14.4,32,32,32h402c0.1,23.1-4.8,48.7-15.6,70.3
	c22.7-24.4,37.3-45.5,45.9-70.3h66.7c17.6,0,32-14.4,32-32V955.9C1342.1,938.4,1327.7,924,1310.1,924z"/>
<path class="st37" d="M1115.9,1137.2h64.8c-10.4-1.5-21.3-2.4-32.4-2.4C1137.2,1134.8,1126.4,1135.6,1115.9,1137.2L1115.9,1137.2z
	 M1212.9,1144.5c-0.9,21.1-5.8,43.6-15.4,62.9c17.4-18.7,30.1-35.6,39-53.6C1229,1150.3,1221.2,1147.2,1212.9,1144.5z"/>
<path class="st30" d="M779.1,1002.6H857c66.4,0,120.8,54.3,120.8,120.8l0,0c0,4.7-0.3,9.2-0.8,13.8H811c-17.6,0-32-14.4-32-32
	V1002.6z"/>
<path class="st25" d="M779.1,984.4c29.6-9.5,58-25.1,79.2-47.5c3.9-4.1,7.5-8.4,10.8-12.9h-58c-17.6,0-32,14.4-32,32V984.4z"/>
<path class="st4" d="M1167.2,924H823.7c29.5,17.3,62.6,29.1,95.3,36c1.5,0.3,3.1,0.6,4.7,0.9c13.5,60,42.2,105.6,92.9,160.1
	c-23.6-47.4-31.8-105.4-27.3-153.3c2,0,4.1,0.1,6.1,0.1C1060.8,967.7,1120.7,951.3,1167.2,924z"/>
<path class="st16" d="M1267.2,1137.2h42.9c17.6,0,32-14.4,32-32v-61.6C1303.2,1059.3,1274.1,1094.6,1267.2,1137.2z"/>
<path class="st37" d="M1271.4,924c-4.6,13.4-7.2,27.8-7.2,42.7c0,53.3,32,99.2,77.8,119.5V955.9c0-17.6-14.4-32-32-32H1271.4z"/>
<path class="st38" d="M1308.5,1064.7l0.5,0.4c0.4,0.4,0.9,0.8,1.3,1.1l0.5,0.4c0.4,0.4,0.9,0.7,1.3,1.1l0.5,0.4
	c0.5,0.4,1,0.8,1.4,1.2l0.4,0.3c0.5,0.4,1,0.8,1.5,1.1l0.4,0.3c0.5,0.4,1,0.7,1.5,1.1l0.4,0.3c0.5,0.4,1,0.7,1.5,1.1l0.3,0.2
	c0.5,0.4,1.1,0.8,1.6,1.1l0.3,0.2c0.6,0.4,1.1,0.7,1.7,1.1l0.2,0.1c0.6,0.4,1.2,0.8,1.8,1.2l0.1,0c0.6,0.4,1.3,0.8,1.9,1.2l0,0
	c4.7,2.8,9.5,5.3,14.5,7.5v-42.6c-12.5,5.1-23.9,12.1-33.9,20.8C1308.3,1064.4,1308.4,1064.5,1308.5,1064.7z"/>
<path class="st39" d="M1839.9,708.1h-54.3v28.6c0.8-0.3,1.6-0.6,2.4-0.9l0.2-0.1l0.7-0.3l0.7-0.2l0.7-0.3l0.6-0.2l0.6-0.2l0.8-0.3
	l0.4-0.2l0.9-0.3l0.6-0.2l0.8-0.3l0.6-0.2l0.8-0.3l0.5-0.2l0.9-0.4l0.5-0.2l0.9-0.4l0.4-0.2l0.9-0.4l0.4-0.2
	c0.4-0.2,0.8-0.3,1.2-0.5l0.1,0c2.3-1,4.5-2.1,6.8-3.2l0.1,0c0.4-0.2,0.8-0.4,1.3-0.6l0,0c0.4-0.2,0.9-0.4,1.3-0.6l0.1-0.1
	c0.4-0.2,0.8-0.4,1.3-0.6l0,0c0.4-0.2,0.9-0.4,1.3-0.7l0,0c0.4-0.2,0.9-0.5,1.3-0.7C1824.2,718.8,1832.3,713.7,1839.9,708.1z"/>
<path class="st9" d="M404.2,751.4c-12.2,5.5-26.7,8.7-42.2,8.7c-0.6,0-1.2,0-1.8,0c-1.3,14,1.1,31,8,44.9c-6-6.5-11-12.5-15-18.6
	v-51.9c1.7,0.1,3.3,0.2,4.9,0.4l0.1,0c1.6,0.2,3.2,0.4,4.8,0.6l0.1,0c0.8,0.1,1.6,0.2,2.3,0.4l0.1,0c0.8,0.1,1.5,0.3,2.3,0.4l0.1,0
	c0.8,0.2,1.5,0.3,2.3,0.5l0.1,0c0.8,0.2,1.5,0.4,2.3,0.5l0,0l0,0c0.8,0.2,1.5,0.4,2.3,0.6l0.1,0c0.7,0.2,1.5,0.4,2.2,0.6l0.1,0
	c0.7,0.2,1.4,0.4,2.1,0.7l0.2,0.1c0.7,0.2,1.4,0.5,2.1,0.7l0.2,0.1c0.7,0.2,1.4,0.5,2.1,0.8l0.1,0c0.7,0.3,1.4,0.5,2,0.8l0.3,0.1
	c0.7,0.3,1.3,0.6,2,0.8l0.2,0.1c0.6,0.3,1.3,0.6,1.9,0.9l0.2,0.1c0.6,0.3,1.3,0.6,1.9,0.9l0.3,0.1c0.6,0.3,1.2,0.6,1.8,0.9l0.2,0.1
	c0.6,0.3,1.2,0.6,1.8,1l0.3,0.2c0.6,0.3,1.2,0.7,1.8,1l0.2,0.1c0.6,0.3,1.1,0.7,1.7,1l0.3,0.2c0.6,0.4,1.2,0.7,1.7,1.1l0.3,0.2
	C403.4,750.9,403.8,751.1,404.2,751.4z"/>
<path class="st40" d="M856.6,938.7l3.5-3.7l6.6-7.8l2.4-3.2h-45.4c10.2,6,20.8,11.3,31.7,16C855.7,939.5,856.2,939.1,856.6,938.7z"
	/>
</svg>
